<svg width="112" height="112" viewBox="0 0 112 112" fill="none" xmlns="http://www.w3.org/2000/svg">
<path d="M0 17.9003V109C0 110.657 1.34314 112 3 112H94.0792C96.7128 112 98.0684 108.849 96.2573 106.937L89.7296 100.045C89.163 99.4467 88.3754 99.1079 87.5515 99.1079H33.942C31.3052 99.1079 29.951 95.9505 31.7684 94.0401L54.8645 69.7622C55.9707 68.5995 55.9658 66.7721 54.8535 65.6152L49.2976 59.8368C48.1259 58.6183 46.1793 58.6079 44.9947 59.814L19.4561 85.8166C17.5742 87.7327 14.3158 86.4002 14.3158 83.7145V25.8571C14.3158 25.0385 13.9813 24.2555 13.3898 23.6895L5.07402 15.7327C3.16587 13.9069 0 15.2593 0 17.9003Z" fill="url(#paint0_linear_1116_3082)"/>
<path d="M108.988 0.0120586L18.4873 0.374377C15.8323 0.385006 14.5324 3.55122 16.4383 5.39965C20.718 9.55026 25.2631 13.8766 25.2631 14.1007C25.2631 14.4101 69.7434 14.0018 94.6633 13.7311C96.3331 13.7129 97.6842 15.0615 97.6842 16.7314V26.8129C97.6842 28.4698 96.341 29.8129 94.6842 29.8129H48.2658C45.6278 29.8129 44.2741 32.9727 46.0939 34.8825L53.4292 42.5803C53.9953 43.1745 54.7803 43.5108 55.601 43.5108H94.6842C96.341 43.5108 97.6842 44.8539 97.6842 46.5108V85.7904C97.6842 86.5793 97.9949 87.3364 98.5491 87.8978L106.865 96.3227C108.749 98.2316 112 96.8974 112 94.2153V3.01203C112 1.35049 110.65 0.00540663 108.988 0.0120586Z" fill="url(#paint1_linear_1116_3082)"/>
<defs>
<linearGradient id="paint0_linear_1116_3082" x1="30.1845" y1="10.8777" x2="44.2234" y2="81.8654" gradientUnits="userSpaceOnUse">
<stop stop-color="#5390E3"/>
<stop offset="1" stop-color="#1357B3"/>
</linearGradient>
<linearGradient id="paint1_linear_1116_3082" x1="41.4272" y1="4.75754e-07" x2="55.6286" y2="71.2265" gradientUnits="userSpaceOnUse">
<stop stop-color="#5390E3"/>
<stop offset="1" stop-color="#1357B3"/>
</linearGradient>
</defs>
</svg>
